<mxfile host="Electron" agent="Mozilla/5.0 (Windows NT 10.0; Win64; x64) AppleWebKit/537.36 (KHTML, like Gecko) draw.io/24.7.17 Chrome/128.0.6613.36 Electron/32.0.1 Safari/537.36" version="24.7.17">
  <diagram name="Page-1" id="F4KrW8JxtzPAobyz8DqY">
    <mxGraphModel dx="1313" dy="776" grid="1" gridSize="10" guides="1" tooltips="1" connect="1" arrows="1" fold="1" page="1" pageScale="1" pageWidth="827" pageHeight="1169" math="0" shadow="0">
      <root>
        <mxCell id="0" />
        <mxCell id="1" parent="0" />
        <mxCell id="SN2yluZUW8M9mS18KECz-75" value="Players" style="shape=folder;fontStyle=1;tabWidth=110;tabHeight=30;tabPosition=left;html=1;boundedLbl=1;labelInHeader=1;container=1;collapsible=0;whiteSpace=wrap;" parent="1" vertex="1">
          <mxGeometry x="836" y="160" width="810" height="660" as="geometry" />
        </mxCell>
        <mxCell id="SN2yluZUW8M9mS18KECz-76" value="" style="html=1;strokeColor=none;resizeWidth=1;resizeHeight=1;fillColor=none;part=1;connectable=0;allowArrows=0;deletable=0;whiteSpace=wrap;" parent="SN2yluZUW8M9mS18KECz-75" vertex="1">
          <mxGeometry width="810" height="630" relative="1" as="geometry">
            <mxPoint y="30" as="offset" />
          </mxGeometry>
        </mxCell>
        <mxCell id="FavM__Tn094tiXzaovP9-73" value="" style="group" parent="SN2yluZUW8M9mS18KECz-75" vertex="1" connectable="0">
          <mxGeometry x="46.65898617511521" y="60" width="149.30875576036865" height="170" as="geometry" />
        </mxCell>
        <mxCell id="FavM__Tn094tiXzaovP9-74" value="«interface»&lt;br&gt;&lt;b&gt;IPlayer&lt;/b&gt;" style="html=1;whiteSpace=wrap;movable=1;resizable=1;rotatable=1;deletable=1;editable=1;locked=0;connectable=1;fillColor=#647687;fontColor=#ffffff;strokeColor=#314354;" parent="FavM__Tn094tiXzaovP9-73" vertex="1">
          <mxGeometry width="149.30875576036865" height="56.66666666666667" as="geometry" />
        </mxCell>
        <mxCell id="FavM__Tn094tiXzaovP9-75" value="&lt;div&gt;Intger getPlayerId();&lt;/div&gt;&lt;div&gt;&lt;span style=&quot;background-color: initial;&quot;&gt;Bool isBot();&lt;/span&gt;&lt;/div&gt;&lt;div&gt;AL&amp;lt;ICard&amp;gt; getHand();&lt;span style=&quot;background-color: initial;&quot;&gt;&lt;br&gt;&lt;/span&gt;&lt;/div&gt;&lt;div&gt;void discard(ICard);&lt;/div&gt;&lt;div&gt;void draw(ICard);&lt;/div&gt;&lt;div&gt;void flipCard(ICard);&lt;/div&gt;" style="rounded=0;whiteSpace=wrap;html=1;align=left;movable=1;resizable=1;rotatable=1;deletable=1;editable=1;locked=0;connectable=1;" parent="FavM__Tn094tiXzaovP9-73" vertex="1">
          <mxGeometry y="56.66666666666667" width="149.30875576036865" height="113.33333333333334" as="geometry" />
        </mxCell>
        <mxCell id="SN2yluZUW8M9mS18KECz-39" style="edgeStyle=orthogonalEdgeStyle;rounded=0;orthogonalLoop=1;jettySize=auto;html=1;entryX=0.5;entryY=1;entryDx=0;entryDy=0;dashed=1;" parent="SN2yluZUW8M9mS18KECz-75" source="SN2yluZUW8M9mS18KECz-37" target="FavM__Tn094tiXzaovP9-75" edge="1">
          <mxGeometry relative="1" as="geometry" />
        </mxCell>
        <mxCell id="SN2yluZUW8M9mS18KECz-40" value="Implements" style="edgeLabel;html=1;align=center;verticalAlign=middle;resizable=0;points=[];" parent="SN2yluZUW8M9mS18KECz-39" vertex="1" connectable="0">
          <mxGeometry x="0.0874" y="-4" relative="1" as="geometry">
            <mxPoint as="offset" />
          </mxGeometry>
        </mxCell>
        <mxCell id="t7THmQA8hoJjXBgSS74K-11" value="" style="group" vertex="1" connectable="0" parent="SN2yluZUW8M9mS18KECz-75">
          <mxGeometry x="420" y="60" width="349.29" height="170" as="geometry" />
        </mxCell>
        <mxCell id="t7THmQA8hoJjXBgSS74K-12" value="«interface»&lt;br&gt;&lt;b&gt;IBot&lt;/b&gt;" style="html=1;whiteSpace=wrap;movable=1;resizable=1;rotatable=1;deletable=1;editable=1;locked=0;connectable=1;fillColor=#647687;fontColor=#ffffff;strokeColor=#314354;" vertex="1" parent="t7THmQA8hoJjXBgSS74K-11">
          <mxGeometry width="349.29" height="56.66666666666667" as="geometry" />
        </mxCell>
        <mxCell id="t7THmQA8hoJjXBgSS74K-13" value="String mainAction(AL&amp;lt;ICard&amp;gt;, AL&amp;lt;ICard&amp;gt;, AL&amp;lt;ICard&amp;gt;);&lt;div&gt;String bonusAction&lt;span style=&quot;background-color: initial;&quot;&gt;(AL&amp;lt;ICard&amp;gt;, AL&amp;lt;ICard&amp;gt;, AL&amp;lt;ICard&amp;gt;);&lt;/span&gt;&lt;/div&gt;" style="rounded=0;whiteSpace=wrap;html=1;align=left;movable=1;resizable=1;rotatable=1;deletable=1;editable=1;locked=0;connectable=1;" vertex="1" parent="t7THmQA8hoJjXBgSS74K-11">
          <mxGeometry y="56.66666666666667" width="349.29" height="113.33333333333334" as="geometry" />
        </mxCell>
        <mxCell id="t7THmQA8hoJjXBgSS74K-14" style="edgeStyle=orthogonalEdgeStyle;rounded=0;orthogonalLoop=1;jettySize=auto;html=1;entryX=1;entryY=0.75;entryDx=0;entryDy=0;" edge="1" parent="SN2yluZUW8M9mS18KECz-75" source="t7THmQA8hoJjXBgSS74K-13" target="FavM__Tn094tiXzaovP9-75">
          <mxGeometry relative="1" as="geometry" />
        </mxCell>
        <mxCell id="t7THmQA8hoJjXBgSS74K-15" value="Extends" style="edgeLabel;html=1;align=center;verticalAlign=middle;resizable=0;points=[];" vertex="1" connectable="0" parent="t7THmQA8hoJjXBgSS74K-14">
          <mxGeometry x="-0.0895" y="3" relative="1" as="geometry">
            <mxPoint as="offset" />
          </mxGeometry>
        </mxCell>
        <mxCell id="t7THmQA8hoJjXBgSS74K-18" style="edgeStyle=orthogonalEdgeStyle;rounded=0;orthogonalLoop=1;jettySize=auto;html=1;entryX=0.5;entryY=1;entryDx=0;entryDy=0;" edge="1" parent="SN2yluZUW8M9mS18KECz-75" source="t7THmQA8hoJjXBgSS74K-17" target="t7THmQA8hoJjXBgSS74K-13">
          <mxGeometry relative="1" as="geometry" />
        </mxCell>
        <mxCell id="t7THmQA8hoJjXBgSS74K-17" value="&lt;h1 style=&quot;margin-top: 0px;&quot;&gt;Bot logic&lt;/h1&gt;&lt;p&gt;This is a very stupid bot that does not consider the entire game context, and only chooses cards based on its hand and the options.&lt;/p&gt;" style="text;html=1;whiteSpace=wrap;overflow=hidden;rounded=0;" vertex="1" parent="SN2yluZUW8M9mS18KECz-75">
          <mxGeometry x="494.0047004608295" y="280" width="261.2903225806452" height="106" as="geometry" />
        </mxCell>
        <mxCell id="t7THmQA8hoJjXBgSS74K-23" style="edgeStyle=orthogonalEdgeStyle;rounded=0;orthogonalLoop=1;jettySize=auto;html=1;entryX=0;entryY=1;entryDx=0;entryDy=0;dashed=1;exitX=0.5;exitY=0;exitDx=0;exitDy=0;" edge="1" parent="SN2yluZUW8M9mS18KECz-75" source="t7THmQA8hoJjXBgSS74K-20" target="t7THmQA8hoJjXBgSS74K-13">
          <mxGeometry relative="1" as="geometry">
            <mxPoint x="360" y="424" as="sourcePoint" />
            <mxPoint x="374" y="214" as="targetPoint" />
          </mxGeometry>
        </mxCell>
        <mxCell id="t7THmQA8hoJjXBgSS74K-24" value="Implements" style="edgeLabel;html=1;align=center;verticalAlign=middle;resizable=0;points=[];" vertex="1" connectable="0" parent="t7THmQA8hoJjXBgSS74K-23">
          <mxGeometry x="0.0874" y="-4" relative="1" as="geometry">
            <mxPoint as="offset" />
          </mxGeometry>
        </mxCell>
        <mxCell id="t7THmQA8hoJjXBgSS74K-35" value="" style="group" vertex="1" connectable="0" parent="SN2yluZUW8M9mS18KECz-75">
          <mxGeometry x="52" y="440" width="348" height="160" as="geometry" />
        </mxCell>
        <mxCell id="t7THmQA8hoJjXBgSS74K-26" value="" style="rounded=0;whiteSpace=wrap;html=1;fillStyle=cross-hatch;fillColor=#09776a;" vertex="1" parent="t7THmQA8hoJjXBgSS74K-35">
          <mxGeometry width="348" height="160" as="geometry" />
        </mxCell>
        <mxCell id="SN2yluZUW8M9mS18KECz-36" value="" style="group" parent="t7THmQA8hoJjXBgSS74K-35" vertex="1" connectable="0">
          <mxGeometry x="15.327188940092164" y="20" width="139.97695852534562" height="120" as="geometry" />
        </mxCell>
        <mxCell id="SN2yluZUW8M9mS18KECz-37" value="&lt;b&gt;PointSaladPlayer&lt;/b&gt;" style="html=1;whiteSpace=wrap;movable=1;resizable=1;rotatable=1;deletable=1;editable=1;locked=0;connectable=1;fillColor=#6a00ff;fontColor=#ffffff;strokeColor=#3700CC;" parent="SN2yluZUW8M9mS18KECz-36" vertex="1">
          <mxGeometry width="139.97695852534562" height="40" as="geometry" />
        </mxCell>
        <mxCell id="SN2yluZUW8M9mS18KECz-38" value="" style="rounded=0;whiteSpace=wrap;html=1;align=left;movable=1;resizable=1;rotatable=1;deletable=1;editable=1;locked=0;connectable=1;" parent="SN2yluZUW8M9mS18KECz-36" vertex="1">
          <mxGeometry y="40" width="139.97695852534562" height="80" as="geometry" />
        </mxCell>
        <mxCell id="t7THmQA8hoJjXBgSS74K-19" value="" style="group" vertex="1" connectable="0" parent="t7THmQA8hoJjXBgSS74K-35">
          <mxGeometry x="187.9971889400922" y="20" width="139.97695852534562" height="120" as="geometry" />
        </mxCell>
        <mxCell id="t7THmQA8hoJjXBgSS74K-20" value="&lt;b&gt;PointSaladBot&lt;/b&gt;" style="html=1;whiteSpace=wrap;movable=1;resizable=1;rotatable=1;deletable=1;editable=1;locked=0;connectable=1;fillColor=#6a00ff;fontColor=#ffffff;strokeColor=#3700CC;" vertex="1" parent="t7THmQA8hoJjXBgSS74K-19">
          <mxGeometry width="139.97695852534562" height="40" as="geometry" />
        </mxCell>
        <mxCell id="t7THmQA8hoJjXBgSS74K-21" value="" style="rounded=0;whiteSpace=wrap;html=1;align=left;movable=1;resizable=1;rotatable=1;deletable=1;editable=1;locked=0;connectable=1;" vertex="1" parent="t7THmQA8hoJjXBgSS74K-19">
          <mxGeometry y="40" width="139.97695852534562" height="80" as="geometry" />
        </mxCell>
        <mxCell id="SN2yluZUW8M9mS18KECz-71" value="Assets" style="shape=folder;fontStyle=1;tabWidth=110;tabHeight=30;tabPosition=left;html=1;boundedLbl=1;labelInHeader=1;container=1;collapsible=0;whiteSpace=wrap;" parent="1" vertex="1">
          <mxGeometry x="19" y="160" width="790" height="990" as="geometry" />
        </mxCell>
        <mxCell id="SN2yluZUW8M9mS18KECz-72" value="" style="html=1;strokeColor=none;resizeWidth=1;resizeHeight=1;fillColor=none;part=1;connectable=0;allowArrows=0;deletable=0;whiteSpace=wrap;" parent="SN2yluZUW8M9mS18KECz-71" vertex="1">
          <mxGeometry width="790" height="960" relative="1" as="geometry">
            <mxPoint y="30" as="offset" />
          </mxGeometry>
        </mxCell>
        <mxCell id="SN2yluZUW8M9mS18KECz-80" value="" style="group" parent="SN2yluZUW8M9mS18KECz-71" vertex="1" connectable="0">
          <mxGeometry x="211" y="760.0020000000001" width="310" height="180" as="geometry" />
        </mxCell>
        <mxCell id="SN2yluZUW8M9mS18KECz-81" value="«interface»&lt;br&gt;&lt;b&gt;IAbstractAssetFactory&lt;/b&gt;" style="html=1;whiteSpace=wrap;movable=1;resizable=1;rotatable=1;deletable=1;editable=1;locked=0;connectable=1;fillColor=#647687;fontColor=#ffffff;strokeColor=#314354;" parent="SN2yluZUW8M9mS18KECz-80" vertex="1">
          <mxGeometry width="310" height="60" as="geometry" />
        </mxCell>
        <mxCell id="SN2yluZUW8M9mS18KECz-82" value="&lt;div&gt;AL&amp;lt;ICard&amp;gt; generateDeck(JSONObject);&lt;/div&gt;ICard &lt;span class=&quot;hljs-title function_&quot;&gt;createCard&lt;/span&gt;&lt;span class=&quot;hljs-params&quot;&gt;(JSONObject)&lt;/span&gt;;&lt;br&gt;ICriteriaStrategy&amp;nbsp;&lt;span class=&quot;hljs-title function_&quot;&gt;createCriteria&lt;/span&gt;&lt;span class=&quot;hljs-params&quot;&gt;(JSONObject)&lt;/span&gt;;&lt;br&gt;IResource &lt;span class=&quot;hljs-title function_&quot;&gt;createResource&lt;/span&gt;&lt;span class=&quot;hljs-params&quot;&gt;(JSONObject)&lt;/span&gt;;" style="rounded=0;whiteSpace=wrap;html=1;align=left;movable=1;resizable=1;rotatable=1;deletable=1;editable=1;locked=0;connectable=1;" parent="SN2yluZUW8M9mS18KECz-80" vertex="1">
          <mxGeometry y="60" width="310" height="120" as="geometry" />
        </mxCell>
        <mxCell id="SN2yluZUW8M9mS18KECz-16" value="" style="group" parent="SN2yluZUW8M9mS18KECz-71" vertex="1" connectable="0">
          <mxGeometry x="41" y="470" width="171" height="198" as="geometry" />
        </mxCell>
        <mxCell id="SN2yluZUW8M9mS18KECz-17" value="«interface»&lt;br&gt;&lt;b&gt;ICard&lt;/b&gt;" style="html=1;whiteSpace=wrap;movable=1;resizable=1;rotatable=1;deletable=1;editable=1;locked=0;connectable=1;fillColor=#647687;fontColor=#ffffff;strokeColor=#314354;" parent="SN2yluZUW8M9mS18KECz-16" vertex="1">
          <mxGeometry width="171" height="43.99999999999999" as="geometry" />
        </mxCell>
        <mxCell id="SN2yluZUW8M9mS18KECz-18" value="&lt;div&gt;&lt;span style=&quot;background-color: initial;&quot;&gt;ICriteriaStrategy getCriteria();&lt;/span&gt;&lt;br&gt;&lt;/div&gt;&lt;div&gt;IResource getResource();&lt;/div&gt;&lt;div&gt;Boolean isCriteriaSideActive();&lt;/div&gt;&lt;div&gt;void flip();&lt;/div&gt;" style="rounded=0;whiteSpace=wrap;html=1;align=left;movable=1;resizable=1;rotatable=1;deletable=1;editable=1;locked=0;connectable=1;" parent="SN2yluZUW8M9mS18KECz-16" vertex="1">
          <mxGeometry y="43.99999999999999" width="171" height="153.99999999999997" as="geometry" />
        </mxCell>
        <mxCell id="FavM__Tn094tiXzaovP9-109" value="" style="group" parent="SN2yluZUW8M9mS18KECz-71" vertex="1" connectable="0">
          <mxGeometry x="601" y="506.00000000000006" width="100" height="99.00000000000001" as="geometry" />
        </mxCell>
        <mxCell id="FavM__Tn094tiXzaovP9-51" value="«interface»&lt;br&gt;&lt;b&gt;IResource&lt;/b&gt;" style="html=1;whiteSpace=wrap;movable=1;resizable=1;rotatable=1;deletable=1;editable=1;locked=0;connectable=1;fillColor=#647687;fontColor=#ffffff;strokeColor=#314354;" parent="FavM__Tn094tiXzaovP9-109" vertex="1">
          <mxGeometry width="100" height="44" as="geometry" />
        </mxCell>
        <mxCell id="FavM__Tn094tiXzaovP9-52" value="String getType();" style="rounded=0;whiteSpace=wrap;html=1;align=left;movable=1;resizable=1;rotatable=1;deletable=1;editable=1;locked=0;connectable=1;" parent="FavM__Tn094tiXzaovP9-109" vertex="1">
          <mxGeometry y="44" width="100" height="55.00000000000001" as="geometry" />
        </mxCell>
        <mxCell id="SN2yluZUW8M9mS18KECz-83" value="" style="group" parent="SN2yluZUW8M9mS18KECz-71" vertex="1" connectable="0">
          <mxGeometry x="281" y="60" width="329" height="110" as="geometry" />
        </mxCell>
        <mxCell id="SN2yluZUW8M9mS18KECz-84" value="«interface»&lt;br&gt;&lt;b&gt;ICriteriaStrategy&lt;/b&gt;" style="html=1;whiteSpace=wrap;movable=1;resizable=1;rotatable=1;deletable=1;editable=1;locked=0;connectable=1;fillColor=#647687;fontColor=#ffffff;strokeColor=#314354;" parent="SN2yluZUW8M9mS18KECz-83" vertex="1">
          <mxGeometry width="329" height="43.99999999999999" as="geometry" />
        </mxCell>
        <mxCell id="SN2yluZUW8M9mS18KECz-85" value="&lt;div&gt;&lt;div&gt;&lt;span style=&quot;background-color: initial;&quot;&gt;Integer calcScore(AL&amp;lt;IResource&amp;gt;, AL&amp;lt;AL&amp;lt;IResource&amp;gt;&amp;gt;);&lt;/span&gt;&lt;br&gt;&lt;/div&gt;&lt;/div&gt;" style="rounded=0;whiteSpace=wrap;html=1;align=left;movable=1;resizable=1;rotatable=1;deletable=1;editable=1;locked=0;connectable=1;perimeterSpacing=0;" parent="SN2yluZUW8M9mS18KECz-83" vertex="1">
          <mxGeometry y="43.99999999999999" width="329" height="65.99999999999999" as="geometry" />
        </mxCell>
        <mxCell id="SN2yluZUW8M9mS18KECz-89" style="edgeStyle=orthogonalEdgeStyle;rounded=0;orthogonalLoop=1;jettySize=auto;html=1;dashed=1;entryX=0;entryY=0.25;entryDx=0;entryDy=0;" parent="SN2yluZUW8M9mS18KECz-71" source="SN2yluZUW8M9mS18KECz-18" target="FavM__Tn094tiXzaovP9-52" edge="1">
          <mxGeometry relative="1" as="geometry">
            <Array as="points">
              <mxPoint x="406" y="620" />
              <mxPoint x="406" y="600" />
              <mxPoint x="551" y="600" />
              <mxPoint x="551" y="564" />
            </Array>
          </mxGeometry>
        </mxCell>
        <mxCell id="SN2yluZUW8M9mS18KECz-93" style="edgeStyle=orthogonalEdgeStyle;rounded=0;orthogonalLoop=1;jettySize=auto;html=1;entryX=0;entryY=0.5;entryDx=0;entryDy=0;dashed=1;" parent="SN2yluZUW8M9mS18KECz-71" source="SN2yluZUW8M9mS18KECz-91" target="SN2yluZUW8M9mS18KECz-85" edge="1">
          <mxGeometry relative="1" as="geometry" />
        </mxCell>
        <mxCell id="SN2yluZUW8M9mS18KECz-94" value="Implements" style="edgeLabel;html=1;align=center;verticalAlign=middle;resizable=0;points=[];" parent="SN2yluZUW8M9mS18KECz-93" vertex="1" connectable="0">
          <mxGeometry x="0.0072" y="-1" relative="1" as="geometry">
            <mxPoint as="offset" />
          </mxGeometry>
        </mxCell>
        <mxCell id="SN2yluZUW8M9mS18KECz-99" style="edgeStyle=orthogonalEdgeStyle;rounded=0;orthogonalLoop=1;jettySize=auto;html=1;dashed=1;" parent="SN2yluZUW8M9mS18KECz-71" source="SN2yluZUW8M9mS18KECz-97" target="SN2yluZUW8M9mS18KECz-85" edge="1">
          <mxGeometry relative="1" as="geometry" />
        </mxCell>
        <mxCell id="SN2yluZUW8M9mS18KECz-100" value="Implements" style="edgeLabel;html=1;align=center;verticalAlign=middle;resizable=0;points=[];" parent="SN2yluZUW8M9mS18KECz-99" vertex="1" connectable="0">
          <mxGeometry x="-0.3864" y="-1" relative="1" as="geometry">
            <mxPoint as="offset" />
          </mxGeometry>
        </mxCell>
        <mxCell id="SN2yluZUW8M9mS18KECz-130" value="" style="group" parent="SN2yluZUW8M9mS18KECz-71" vertex="1" connectable="0">
          <mxGeometry x="581" y="730" width="159" height="198" as="geometry" />
        </mxCell>
        <mxCell id="SN2yluZUW8M9mS18KECz-139" value="" style="edgeStyle=orthogonalEdgeStyle;rounded=0;orthogonalLoop=1;jettySize=auto;html=1;" parent="SN2yluZUW8M9mS18KECz-130" source="SN2yluZUW8M9mS18KECz-131" target="SN2yluZUW8M9mS18KECz-132" edge="1">
          <mxGeometry relative="1" as="geometry" />
        </mxCell>
        <mxCell id="SN2yluZUW8M9mS18KECz-131" value="«enumeration»&lt;br&gt;&lt;b&gt;PointSaladResourceType&lt;/b&gt;" style="html=1;whiteSpace=wrap;movable=1;resizable=1;rotatable=1;deletable=1;editable=1;locked=0;connectable=1;fillColor=#008a00;strokeColor=#005700;fontColor=#ffffff;" parent="SN2yluZUW8M9mS18KECz-130" vertex="1">
          <mxGeometry width="159" height="43.99999999999999" as="geometry" />
        </mxCell>
        <mxCell id="SN2yluZUW8M9mS18KECz-132" value="&lt;div&gt;Tomato,&lt;/div&gt;&lt;div&gt;Onion,&lt;/div&gt;&lt;div&gt;...&lt;/div&gt;" style="rounded=0;whiteSpace=wrap;html=1;align=left;movable=1;resizable=1;rotatable=1;deletable=1;editable=1;locked=0;connectable=1;" parent="SN2yluZUW8M9mS18KECz-130" vertex="1">
          <mxGeometry y="43.99999999999999" width="159" height="153.99999999999997" as="geometry" />
        </mxCell>
        <mxCell id="SN2yluZUW8M9mS18KECz-133" style="edgeStyle=orthogonalEdgeStyle;rounded=0;orthogonalLoop=1;jettySize=auto;html=1;entryX=0.5;entryY=1;entryDx=0;entryDy=0;dashed=1;" parent="SN2yluZUW8M9mS18KECz-71" source="SN2yluZUW8M9mS18KECz-131" target="FavM__Tn094tiXzaovP9-52" edge="1">
          <mxGeometry relative="1" as="geometry" />
        </mxCell>
        <mxCell id="SN2yluZUW8M9mS18KECz-134" value="Implements" style="edgeLabel;html=1;align=center;verticalAlign=middle;resizable=0;points=[];" parent="SN2yluZUW8M9mS18KECz-133" vertex="1" connectable="0">
          <mxGeometry x="-0.1406" y="3" relative="1" as="geometry">
            <mxPoint y="1" as="offset" />
          </mxGeometry>
        </mxCell>
        <mxCell id="SN2yluZUW8M9mS18KECz-138" value="" style="group" parent="SN2yluZUW8M9mS18KECz-71" vertex="1" connectable="0">
          <mxGeometry x="161" y="200" width="309" height="70" as="geometry" />
        </mxCell>
        <mxCell id="SN2yluZUW8M9mS18KECz-104" value="" style="rounded=0;whiteSpace=wrap;html=1;fillStyle=cross-hatch;fillColor=#09776a;" parent="SN2yluZUW8M9mS18KECz-138" vertex="1">
          <mxGeometry width="309" height="70.00000000000001" as="geometry" />
        </mxCell>
        <mxCell id="SN2yluZUW8M9mS18KECz-137" value="" style="group" parent="SN2yluZUW8M9mS18KECz-138" vertex="1" connectable="0">
          <mxGeometry x="5.628415300546448" y="5" width="292.67759562841525" height="60" as="geometry" />
        </mxCell>
        <mxCell id="SN2yluZUW8M9mS18KECz-95" value="" style="group" parent="SN2yluZUW8M9mS18KECz-137" vertex="1" connectable="0">
          <mxGeometry width="292.67759562841525" height="60" as="geometry" />
        </mxCell>
        <mxCell id="SN2yluZUW8M9mS18KECz-91" value="&lt;div&gt;&lt;span style=&quot;background-color: initial;&quot;&gt;HasXOfResource&lt;/span&gt;&lt;br&gt;&lt;/div&gt;" style="html=1;whiteSpace=wrap;movable=1;resizable=1;rotatable=1;deletable=1;editable=1;locked=0;connectable=1;fillColor=#6a00ff;fontColor=#ffffff;strokeColor=#3700CC;" parent="SN2yluZUW8M9mS18KECz-95" vertex="1">
          <mxGeometry width="123.82513661202184" height="22" as="geometry" />
        </mxCell>
        <mxCell id="SN2yluZUW8M9mS18KECz-92" value="&lt;div&gt;&lt;div&gt;&lt;br&gt;&lt;/div&gt;&lt;/div&gt;" style="rounded=0;whiteSpace=wrap;html=1;align=left;movable=1;resizable=1;rotatable=1;deletable=1;editable=1;locked=0;connectable=1;perimeterSpacing=0;" parent="SN2yluZUW8M9mS18KECz-95" vertex="1">
          <mxGeometry y="22" width="123.82513661202184" height="18.000000000000004" as="geometry" />
        </mxCell>
        <mxCell id="SN2yluZUW8M9mS18KECz-105" value="And so on..." style="text;html=1;align=center;verticalAlign=middle;whiteSpace=wrap;rounded=0;" parent="SN2yluZUW8M9mS18KECz-138" vertex="1">
          <mxGeometry x="86.66" y="51.36" width="135.67" height="13.64" as="geometry" />
        </mxCell>
        <mxCell id="SN2yluZUW8M9mS18KECz-96" value="" style="group" parent="SN2yluZUW8M9mS18KECz-138" vertex="1" connectable="0">
          <mxGeometry x="140.11933174224342" y="4.998823529411765" width="158.17997613365154" height="39.99882352941177" as="geometry" />
        </mxCell>
        <mxCell id="SN2yluZUW8M9mS18KECz-97" value="&lt;div&gt;&lt;span style=&quot;background-color: initial;&quot;&gt;HasMostTotalOfResource&lt;/span&gt;&lt;br&gt;&lt;/div&gt;" style="html=1;whiteSpace=wrap;movable=1;resizable=1;rotatable=1;deletable=1;editable=1;locked=0;connectable=1;fillColor=#6a00ff;fontColor=#ffffff;strokeColor=#3700CC;" parent="SN2yluZUW8M9mS18KECz-96" vertex="1">
          <mxGeometry width="158.17997613365154" height="21.99935294117647" as="geometry" />
        </mxCell>
        <mxCell id="SN2yluZUW8M9mS18KECz-98" value="&lt;div&gt;&lt;div&gt;&lt;br&gt;&lt;/div&gt;&lt;/div&gt;" style="rounded=0;whiteSpace=wrap;html=1;align=left;movable=1;resizable=1;rotatable=1;deletable=1;editable=1;locked=0;connectable=1;perimeterSpacing=0;" parent="SN2yluZUW8M9mS18KECz-96" vertex="1">
          <mxGeometry y="21.99935294117647" width="158.17997613365154" height="17.999470588235294" as="geometry" />
        </mxCell>
        <mxCell id="SN2yluZUW8M9mS18KECz-148" style="edgeStyle=orthogonalEdgeStyle;rounded=0;orthogonalLoop=1;jettySize=auto;html=1;exitX=0.75;exitY=0;exitDx=0;exitDy=0;entryX=0;entryY=0.25;entryDx=0;entryDy=0;dashed=1;" parent="SN2yluZUW8M9mS18KECz-71" source="SN2yluZUW8M9mS18KECz-17" target="SN2yluZUW8M9mS18KECz-85" edge="1">
          <mxGeometry relative="1" as="geometry">
            <Array as="points">
              <mxPoint x="169" y="440" />
              <mxPoint x="131" y="440" />
              <mxPoint x="131" y="121" />
            </Array>
          </mxGeometry>
        </mxCell>
        <mxCell id="SN2yluZUW8M9mS18KECz-149" style="edgeStyle=orthogonalEdgeStyle;rounded=0;orthogonalLoop=1;jettySize=auto;html=1;exitX=1;exitY=0.5;exitDx=0;exitDy=0;dashed=1;" parent="SN2yluZUW8M9mS18KECz-71" source="SN2yluZUW8M9mS18KECz-85" target="FavM__Tn094tiXzaovP9-51" edge="1">
          <mxGeometry relative="1" as="geometry">
            <Array as="points">
              <mxPoint x="651" y="137" />
              <mxPoint x="651" y="200" />
              <mxPoint x="671" y="200" />
              <mxPoint x="671" y="338" />
              <mxPoint x="651" y="338" />
            </Array>
          </mxGeometry>
        </mxCell>
        <mxCell id="SN2yluZUW8M9mS18KECz-150" style="edgeStyle=orthogonalEdgeStyle;rounded=0;orthogonalLoop=1;jettySize=auto;html=1;entryX=0.5;entryY=1;entryDx=0;entryDy=0;dashed=1;exitX=0;exitY=0.25;exitDx=0;exitDy=0;" parent="SN2yluZUW8M9mS18KECz-71" source="SN2yluZUW8M9mS18KECz-82" target="SN2yluZUW8M9mS18KECz-18" edge="1">
          <mxGeometry relative="1" as="geometry" />
        </mxCell>
        <mxCell id="SN2yluZUW8M9mS18KECz-151" style="edgeStyle=orthogonalEdgeStyle;rounded=0;orthogonalLoop=1;jettySize=auto;html=1;entryX=0;entryY=0.5;entryDx=0;entryDy=0;dashed=1;" parent="SN2yluZUW8M9mS18KECz-71" source="SN2yluZUW8M9mS18KECz-81" target="FavM__Tn094tiXzaovP9-52" edge="1">
          <mxGeometry relative="1" as="geometry" />
        </mxCell>
        <mxCell id="SN2yluZUW8M9mS18KECz-152" style="edgeStyle=orthogonalEdgeStyle;rounded=0;orthogonalLoop=1;jettySize=auto;html=1;entryX=0.848;entryY=1.008;entryDx=0;entryDy=0;dashed=1;entryPerimeter=0;" parent="SN2yluZUW8M9mS18KECz-71" source="SN2yluZUW8M9mS18KECz-81" target="SN2yluZUW8M9mS18KECz-85" edge="1">
          <mxGeometry relative="1" as="geometry">
            <Array as="points">
              <mxPoint x="501" y="450" />
              <mxPoint x="571" y="450" />
              <mxPoint x="571" y="200" />
              <mxPoint x="561" y="200" />
              <mxPoint x="561" y="180" />
              <mxPoint x="560" y="180" />
            </Array>
          </mxGeometry>
        </mxCell>
        <mxCell id="SN2yluZUW8M9mS18KECz-165" value="" style="group" parent="SN2yluZUW8M9mS18KECz-71" vertex="1" connectable="0">
          <mxGeometry x="261" y="290" width="171" height="198" as="geometry" />
        </mxCell>
        <mxCell id="SN2yluZUW8M9mS18KECz-166" value="«interface»&lt;br&gt;&lt;b&gt;IPile&lt;/b&gt;" style="html=1;whiteSpace=wrap;movable=1;resizable=1;rotatable=1;deletable=1;editable=1;locked=0;connectable=1;fillColor=#647687;fontColor=#ffffff;strokeColor=#314354;" parent="SN2yluZUW8M9mS18KECz-165" vertex="1">
          <mxGeometry width="171" height="43.99999999999999" as="geometry" />
        </mxCell>
        <mxCell id="SN2yluZUW8M9mS18KECz-167" value="&lt;div&gt;AL&amp;lt;ICard&amp;gt; getCards();&lt;/div&gt;&lt;div&gt;void shuffle();&lt;/div&gt;&lt;div&gt;ICard drawTop();&lt;/div&gt;&lt;div&gt;ICard drawBottom();&lt;/div&gt;&lt;div&gt;ICriteriaStrategy viewTop();&lt;/div&gt;" style="rounded=0;whiteSpace=wrap;html=1;align=left;movable=1;resizable=1;rotatable=1;deletable=1;editable=1;locked=0;connectable=1;" parent="SN2yluZUW8M9mS18KECz-165" vertex="1">
          <mxGeometry y="43.99999999999999" width="171" height="153.99999999999997" as="geometry" />
        </mxCell>
        <mxCell id="SN2yluZUW8M9mS18KECz-173" style="edgeStyle=orthogonalEdgeStyle;rounded=0;orthogonalLoop=1;jettySize=auto;html=1;exitX=1;exitY=0.25;exitDx=0;exitDy=0;dashed=1;entryX=0.75;entryY=1;entryDx=0;entryDy=0;" parent="SN2yluZUW8M9mS18KECz-71" source="SN2yluZUW8M9mS18KECz-167" target="SN2yluZUW8M9mS18KECz-85" edge="1">
          <mxGeometry relative="1" as="geometry">
            <mxPoint x="528" y="180" as="targetPoint" />
            <Array as="points">
              <mxPoint x="432" y="443" />
              <mxPoint x="481" y="443" />
              <mxPoint x="481" y="400" />
              <mxPoint x="521" y="400" />
              <mxPoint x="521" y="210" />
              <mxPoint x="528" y="210" />
            </Array>
          </mxGeometry>
        </mxCell>
        <mxCell id="SN2yluZUW8M9mS18KECz-174" style="edgeStyle=orthogonalEdgeStyle;rounded=0;orthogonalLoop=1;jettySize=auto;html=1;exitX=0;exitY=0.5;exitDx=0;exitDy=0;entryX=1;entryY=0.25;entryDx=0;entryDy=0;dashed=1;" parent="SN2yluZUW8M9mS18KECz-71" source="SN2yluZUW8M9mS18KECz-167" target="SN2yluZUW8M9mS18KECz-18" edge="1">
          <mxGeometry relative="1" as="geometry" />
        </mxCell>
        <mxCell id="FavM__Tn094tiXzaovP9-86" value="AL = ArrayList" style="text;html=1;align=center;verticalAlign=middle;whiteSpace=wrap;rounded=0;" parent="1" vertex="1">
          <mxGeometry width="60" height="30" as="geometry" />
        </mxCell>
        <mxCell id="SN2yluZUW8M9mS18KECz-1" value="" style="group" parent="1" vertex="1" connectable="0">
          <mxGeometry x="364" y="60" width="100" height="90" as="geometry" />
        </mxCell>
        <mxCell id="SN2yluZUW8M9mS18KECz-2" value="«interface»&lt;br&gt;&lt;b&gt;IRepresentable&lt;/b&gt;" style="html=1;whiteSpace=wrap;movable=1;resizable=1;rotatable=1;deletable=1;editable=1;locked=0;connectable=1;fillColor=#647687;fontColor=#ffffff;strokeColor=#314354;" parent="SN2yluZUW8M9mS18KECz-1" vertex="1">
          <mxGeometry width="100" height="40" as="geometry" />
        </mxCell>
        <mxCell id="SN2yluZUW8M9mS18KECz-3" value="&lt;div&gt;&lt;span style=&quot;background-color: initial;&quot;&gt;String getRepr();&lt;/span&gt;&lt;br&gt;&lt;/div&gt;" style="rounded=0;whiteSpace=wrap;html=1;align=left;movable=1;resizable=1;rotatable=1;deletable=1;editable=1;locked=0;connectable=1;" parent="SN2yluZUW8M9mS18KECz-1" vertex="1">
          <mxGeometry y="40" width="100" height="50" as="geometry" />
        </mxCell>
        <mxCell id="SN2yluZUW8M9mS18KECz-7" style="edgeStyle=orthogonalEdgeStyle;rounded=0;orthogonalLoop=1;jettySize=auto;html=1;entryX=1;entryY=0.5;entryDx=0;entryDy=0;" parent="1" source="FavM__Tn094tiXzaovP9-51" target="SN2yluZUW8M9mS18KECz-3" edge="1">
          <mxGeometry relative="1" as="geometry">
            <Array as="points">
              <mxPoint x="740" y="688" />
              <mxPoint x="740" y="640" />
              <mxPoint x="730" y="640" />
              <mxPoint x="730" y="125" />
            </Array>
          </mxGeometry>
        </mxCell>
        <mxCell id="SN2yluZUW8M9mS18KECz-11" value="Extends" style="edgeLabel;html=1;align=center;verticalAlign=middle;resizable=0;points=[];" parent="SN2yluZUW8M9mS18KECz-7" vertex="1" connectable="0">
          <mxGeometry x="-0.2718" relative="1" as="geometry">
            <mxPoint as="offset" />
          </mxGeometry>
        </mxCell>
        <mxCell id="SN2yluZUW8M9mS18KECz-12" style="edgeStyle=orthogonalEdgeStyle;rounded=0;orthogonalLoop=1;jettySize=auto;html=1;entryX=0;entryY=0.5;entryDx=0;entryDy=0;exitX=0.25;exitY=0;exitDx=0;exitDy=0;" parent="1" source="SN2yluZUW8M9mS18KECz-17" target="SN2yluZUW8M9mS18KECz-3" edge="1">
          <mxGeometry relative="1" as="geometry">
            <mxPoint x="110" y="580" as="sourcePoint" />
            <Array as="points">
              <mxPoint x="103" y="610" />
              <mxPoint x="100" y="610" />
              <mxPoint x="100" y="240" />
              <mxPoint x="170" y="240" />
              <mxPoint x="170" y="125" />
            </Array>
          </mxGeometry>
        </mxCell>
        <mxCell id="SN2yluZUW8M9mS18KECz-13" value="Extends" style="edgeLabel;html=1;align=center;verticalAlign=middle;resizable=0;points=[];" parent="SN2yluZUW8M9mS18KECz-12" vertex="1" connectable="0">
          <mxGeometry x="-0.1792" relative="1" as="geometry">
            <mxPoint as="offset" />
          </mxGeometry>
        </mxCell>
        <mxCell id="SN2yluZUW8M9mS18KECz-106" value="Networking" style="shape=folder;fontStyle=1;tabWidth=110;tabHeight=30;tabPosition=left;html=1;boundedLbl=1;labelInHeader=1;container=1;collapsible=0;whiteSpace=wrap;" parent="1" vertex="1">
          <mxGeometry x="1673" y="160" width="790" height="660" as="geometry" />
        </mxCell>
        <mxCell id="SN2yluZUW8M9mS18KECz-107" value="" style="html=1;strokeColor=none;resizeWidth=1;resizeHeight=1;fillColor=none;part=1;connectable=0;allowArrows=0;deletable=0;whiteSpace=wrap;" parent="SN2yluZUW8M9mS18KECz-106" vertex="1">
          <mxGeometry width="790" height="630" relative="1" as="geometry">
            <mxPoint y="30" as="offset" />
          </mxGeometry>
        </mxCell>
        <mxCell id="SN2yluZUW8M9mS18KECz-153" value="" style="group" parent="SN2yluZUW8M9mS18KECz-106" vertex="1" connectable="0">
          <mxGeometry x="37" y="60" width="203" height="120" as="geometry" />
        </mxCell>
        <mxCell id="SN2yluZUW8M9mS18KECz-154" value="«interface»&lt;br&gt;&lt;b&gt;IClientNetworking&lt;/b&gt;" style="html=1;whiteSpace=wrap;movable=1;resizable=1;rotatable=1;deletable=1;editable=1;locked=0;connectable=1;fillColor=#647687;fontColor=#ffffff;strokeColor=#314354;" parent="SN2yluZUW8M9mS18KECz-153" vertex="1">
          <mxGeometry width="203" height="40" as="geometry" />
        </mxCell>
        <mxCell id="SN2yluZUW8M9mS18KECz-155" value="&lt;span class=&quot;hljs-keyword&quot;&gt;void&lt;/span&gt; &lt;span class=&quot;hljs-title function_&quot;&gt;connectToServer&lt;/span&gt;&lt;span class=&quot;hljs-params&quot;&gt;(String, &lt;span class=&quot;hljs-type&quot;&gt;int&lt;/span&gt;);&lt;/span&gt;&lt;div&gt;&lt;span class=&quot;hljs-keyword&quot;&gt;void&lt;/span&gt; &lt;span class=&quot;hljs-title function_&quot;&gt;sendMessage&lt;/span&gt;&lt;span class=&quot;hljs-params&quot;&gt;(String)&lt;/span&gt;;&amp;nbsp;&lt;/div&gt;&lt;div&gt;String &lt;span class=&quot;hljs-title function_&quot;&gt;receiveMessage&lt;/span&gt;&lt;span class=&quot;hljs-params&quot;&gt;();&lt;/span&gt;&lt;/div&gt;" style="rounded=0;whiteSpace=wrap;html=1;align=left;movable=1;resizable=1;rotatable=1;deletable=1;editable=1;locked=0;connectable=1;" parent="SN2yluZUW8M9mS18KECz-153" vertex="1">
          <mxGeometry y="40" width="203" height="80" as="geometry" />
        </mxCell>
        <mxCell id="t7THmQA8hoJjXBgSS74K-47" value="" style="group" vertex="1" connectable="0" parent="SN2yluZUW8M9mS18KECz-106">
          <mxGeometry x="537" y="60" width="203" height="150" as="geometry" />
        </mxCell>
        <mxCell id="t7THmQA8hoJjXBgSS74K-48" value="«interface»&lt;br&gt;&lt;b&gt;IServerNetworking&lt;/b&gt;" style="html=1;whiteSpace=wrap;movable=1;resizable=1;rotatable=1;deletable=1;editable=1;locked=0;connectable=1;fillColor=#647687;fontColor=#ffffff;strokeColor=#314354;" vertex="1" parent="t7THmQA8hoJjXBgSS74K-47">
          <mxGeometry width="203" height="40" as="geometry" />
        </mxCell>
        <mxCell id="t7THmQA8hoJjXBgSS74K-49" value="&lt;span class=&quot;hljs-keyword&quot;&gt;void&lt;/span&gt; &lt;span class=&quot;hljs-title function_&quot;&gt;startServer&lt;/span&gt;&lt;span class=&quot;hljs-params&quot;&gt;()&lt;/span&gt;;&lt;div&gt;    &lt;span class=&quot;hljs-keyword&quot;&gt;void&lt;/span&gt; &lt;span class=&quot;hljs-title function_&quot;&gt;broadcast&lt;/span&gt;&lt;span class=&quot;hljs-params&quot;&gt;(String);&lt;/span&gt;&lt;/div&gt;&lt;div&gt;void sendMsg(Integer, String);&lt;br&gt;&lt;div&gt;String getPlayerInput(Integer);&lt;br&gt;&lt;div&gt;    &lt;span class=&quot;hljs-keyword&quot;&gt;void&lt;/span&gt; &lt;span class=&quot;hljs-title function_&quot;&gt;removePlayer&lt;/span&gt;&lt;span class=&quot;hljs-params&quot;&gt;(Integer)&lt;/span&gt;;&lt;br&gt;    &lt;span class=&quot;hljs-type&quot;&gt;int&lt;/span&gt; &lt;span class=&quot;hljs-title function_&quot;&gt;getPlayerCount&lt;/span&gt;&lt;span class=&quot;hljs-params&quot;&gt;()&lt;/span&gt;;&lt;/div&gt;&lt;/div&gt;&lt;/div&gt;" style="rounded=0;whiteSpace=wrap;html=1;align=left;movable=1;resizable=1;rotatable=1;deletable=1;editable=1;locked=0;connectable=1;" vertex="1" parent="t7THmQA8hoJjXBgSS74K-47">
          <mxGeometry y="40" width="203" height="110" as="geometry" />
        </mxCell>
        <mxCell id="t7THmQA8hoJjXBgSS74K-82" style="edgeStyle=orthogonalEdgeStyle;rounded=0;orthogonalLoop=1;jettySize=auto;html=1;entryX=1;entryY=0.5;entryDx=0;entryDy=0;dashed=1;" edge="1" parent="SN2yluZUW8M9mS18KECz-106" source="t7THmQA8hoJjXBgSS74K-49" target="t7THmQA8hoJjXBgSS74K-93">
          <mxGeometry relative="1" as="geometry">
            <Array as="points">
              <mxPoint x="639" y="320" />
            </Array>
          </mxGeometry>
        </mxCell>
        <mxCell id="t7THmQA8hoJjXBgSS74K-91" value="" style="group" vertex="1" connectable="0" parent="SN2yluZUW8M9mS18KECz-106">
          <mxGeometry x="293" y="240" width="203" height="120" as="geometry" />
        </mxCell>
        <mxCell id="t7THmQA8hoJjXBgSS74K-92" value="«interface»&lt;br&gt;&lt;b&gt;IClientPlayer&lt;/b&gt;" style="html=1;whiteSpace=wrap;movable=1;resizable=1;rotatable=1;deletable=1;editable=1;locked=0;connectable=1;fillColor=#647687;fontColor=#ffffff;strokeColor=#314354;" vertex="1" parent="t7THmQA8hoJjXBgSS74K-91">
          <mxGeometry width="203" height="40" as="geometry" />
        </mxCell>
        <mxCell id="t7THmQA8hoJjXBgSS74K-93" value="Socket getSocket();&lt;div&gt;Integer getPlayerId();&lt;/div&gt;" style="rounded=0;whiteSpace=wrap;html=1;align=left;movable=1;resizable=1;rotatable=1;deletable=1;editable=1;locked=0;connectable=1;" vertex="1" parent="t7THmQA8hoJjXBgSS74K-91">
          <mxGeometry y="40" width="203" height="80" as="geometry" />
        </mxCell>
        <mxCell id="SN2yluZUW8M9mS18KECz-116" value="Testing" style="shape=folder;fontStyle=1;tabWidth=110;tabHeight=30;tabPosition=left;html=1;boundedLbl=1;labelInHeader=1;container=1;collapsible=0;whiteSpace=wrap;" parent="1" vertex="1">
          <mxGeometry x="19" y="1250" width="790" height="660" as="geometry" />
        </mxCell>
        <mxCell id="SN2yluZUW8M9mS18KECz-117" value="" style="html=1;strokeColor=none;resizeWidth=1;resizeHeight=1;fillColor=none;part=1;connectable=0;allowArrows=0;deletable=0;whiteSpace=wrap;" parent="SN2yluZUW8M9mS18KECz-116" vertex="1">
          <mxGeometry width="790" height="630" relative="1" as="geometry">
            <mxPoint y="30" as="offset" />
          </mxGeometry>
        </mxCell>
        <mxCell id="SN2yluZUW8M9mS18KECz-118" value="Game" style="shape=folder;fontStyle=1;tabWidth=110;tabHeight=30;tabPosition=left;html=1;boundedLbl=1;labelInHeader=1;container=1;collapsible=0;whiteSpace=wrap;" parent="1" vertex="1">
          <mxGeometry x="846" y="1250" width="790" height="1020" as="geometry" />
        </mxCell>
        <mxCell id="SN2yluZUW8M9mS18KECz-119" value="" style="html=1;strokeColor=none;resizeWidth=1;resizeHeight=1;fillColor=none;part=1;connectable=0;allowArrows=0;deletable=0;whiteSpace=wrap;" parent="SN2yluZUW8M9mS18KECz-118" vertex="1">
          <mxGeometry width="790" height="973.6363636363636" relative="1" as="geometry">
            <mxPoint y="30" as="offset" />
          </mxGeometry>
        </mxCell>
        <mxCell id="SN2yluZUW8M9mS18KECz-169" value="" style="group" parent="SN2yluZUW8M9mS18KECz-118" vertex="1" connectable="0">
          <mxGeometry x="544" y="99.99636363636363" width="209" height="185.45454545454544" as="geometry" />
        </mxCell>
        <mxCell id="SN2yluZUW8M9mS18KECz-170" value="«interface»&lt;br&gt;&lt;b&gt;IGameBoard&lt;/b&gt;" style="html=1;whiteSpace=wrap;movable=1;resizable=1;rotatable=1;deletable=1;editable=1;locked=0;connectable=1;fillColor=#647687;fontColor=#ffffff;strokeColor=#314354;" parent="SN2yluZUW8M9mS18KECz-169" vertex="1">
          <mxGeometry width="209.00000000000003" height="61.81818181818181" as="geometry" />
        </mxCell>
        <mxCell id="SN2yluZUW8M9mS18KECz-171" value="&lt;div&gt;AL&amp;lt;IPile&amp;gt; getPiles();&lt;/div&gt;ICard[][] getMarketCards();&lt;div&gt;ICard draftCard(int, int);&lt;/div&gt;&lt;div&gt;void drawCardIntoMarket(int, int);&lt;/div&gt;" style="rounded=0;whiteSpace=wrap;html=1;align=left;movable=1;resizable=1;rotatable=1;deletable=1;editable=1;locked=0;connectable=1;" parent="SN2yluZUW8M9mS18KECz-169" vertex="1">
          <mxGeometry y="61.81818181818181" width="209.00000000000003" height="123.63636363636363" as="geometry" />
        </mxCell>
        <mxCell id="t7THmQA8hoJjXBgSS74K-36" value="&lt;h1 style=&quot;margin-top: 0px;&quot;&gt;Game loop&lt;/h1&gt;&lt;ol&gt;&lt;li&gt;Server create / client join&lt;/li&gt;&lt;li&gt;Game start: prepare piles and market&lt;/li&gt;&lt;li&gt;Player turn (repeat until all cards are drafted):&lt;/li&gt;&lt;ol&gt;&lt;li&gt;Pick card(s) (main action)&lt;/li&gt;&lt;li&gt;Option to flip Criteria (free action)&lt;/li&gt;&lt;li&gt;Refill market&lt;/li&gt;&lt;li&gt;Move to next player&lt;/li&gt;&lt;/ol&gt;&lt;li&gt;Calculate scores and declare the winner&lt;/li&gt;&lt;/ol&gt;" style="text;html=1;whiteSpace=wrap;overflow=hidden;rounded=0;" vertex="1" parent="SN2yluZUW8M9mS18KECz-118">
          <mxGeometry y="30" width="310" height="170" as="geometry" />
        </mxCell>
        <mxCell id="t7THmQA8hoJjXBgSS74K-37" value="&lt;h1 style=&quot;margin-top: 0px;&quot;&gt;Game state&lt;/h1&gt;&lt;div&gt;&lt;ul&gt;&lt;li&gt;Pointer to current player&lt;/li&gt;&lt;li&gt;Players snapshot&lt;/li&gt;&lt;li&gt;Market snapshot&lt;/li&gt;&lt;li&gt;Piles snapshot&lt;/li&gt;&lt;/ul&gt;&lt;/div&gt;" style="text;html=1;whiteSpace=wrap;overflow=hidden;rounded=0;" vertex="1" parent="SN2yluZUW8M9mS18KECz-118">
          <mxGeometry y="200" width="200" height="120" as="geometry" />
        </mxCell>
        <mxCell id="SN2yluZUW8M9mS18KECz-162" value="" style="group" parent="SN2yluZUW8M9mS18KECz-118" vertex="1" connectable="0">
          <mxGeometry x="434" y="320" width="309" height="220" as="geometry" />
        </mxCell>
        <mxCell id="SN2yluZUW8M9mS18KECz-163" value="&lt;b&gt;Main&lt;/b&gt;" style="html=1;whiteSpace=wrap;movable=1;resizable=1;rotatable=1;deletable=1;editable=1;locked=0;connectable=1;fillColor=#6a00ff;fontColor=#ffffff;strokeColor=#3700CC;" parent="SN2yluZUW8M9mS18KECz-162" vertex="1">
          <mxGeometry width="309" height="34.736842105263165" as="geometry" />
        </mxCell>
        <mxCell id="SN2yluZUW8M9mS18KECz-164" value="" style="rounded=0;whiteSpace=wrap;html=1;align=left;movable=1;resizable=1;rotatable=1;deletable=1;editable=1;locked=0;connectable=1;" parent="SN2yluZUW8M9mS18KECz-162" vertex="1">
          <mxGeometry y="34.736842105263165" width="309" height="185.26315789473685" as="geometry" />
        </mxCell>
        <mxCell id="t7THmQA8hoJjXBgSS74K-83" value="" style="group" vertex="1" connectable="0" parent="SN2yluZUW8M9mS18KECz-118">
          <mxGeometry x="310" y="99.99636363636364" width="209" height="185.45454545454544" as="geometry" />
        </mxCell>
        <mxCell id="t7THmQA8hoJjXBgSS74K-84" value="«interface»&lt;br&gt;&lt;b&gt;IPlayerManager&lt;/b&gt;" style="html=1;whiteSpace=wrap;movable=1;resizable=1;rotatable=1;deletable=1;editable=1;locked=0;connectable=1;fillColor=#647687;fontColor=#ffffff;strokeColor=#314354;" vertex="1" parent="t7THmQA8hoJjXBgSS74K-83">
          <mxGeometry width="209.00000000000003" height="61.81818181818181" as="geometry" />
        </mxCell>
        <mxCell id="t7THmQA8hoJjXBgSS74K-85" value="AL&amp;lt;IPlayer&amp;gt; getPlayers();&lt;div&gt;IPlayer getNextPlayer();&lt;/div&gt;" style="rounded=0;whiteSpace=wrap;html=1;align=left;movable=1;resizable=1;rotatable=1;deletable=1;editable=1;locked=0;connectable=1;" vertex="1" parent="t7THmQA8hoJjXBgSS74K-83">
          <mxGeometry y="61.81818181818181" width="209.00000000000003" height="123.63636363636363" as="geometry" />
        </mxCell>
        <mxCell id="SN2yluZUW8M9mS18KECz-146" style="edgeStyle=orthogonalEdgeStyle;rounded=0;orthogonalLoop=1;jettySize=auto;html=1;entryX=0.998;entryY=0.361;entryDx=0;entryDy=0;entryPerimeter=0;dashed=1;exitX=0.25;exitY=1;exitDx=0;exitDy=0;" parent="1" source="FavM__Tn094tiXzaovP9-75" target="SN2yluZUW8M9mS18KECz-18" edge="1">
          <mxGeometry relative="1" as="geometry">
            <Array as="points">
              <mxPoint x="930" y="440" />
              <mxPoint x="630" y="440" />
              <mxPoint x="630" y="650" />
              <mxPoint x="470" y="650" />
              <mxPoint x="470" y="740" />
              <mxPoint x="250" y="740" />
              <mxPoint x="250" y="730" />
            </Array>
          </mxGeometry>
        </mxCell>
        <mxCell id="SN2yluZUW8M9mS18KECz-176" value="" style="group" parent="1" vertex="1" connectable="0">
          <mxGeometry x="1230" y="60" width="100" height="90" as="geometry" />
        </mxCell>
        <mxCell id="SN2yluZUW8M9mS18KECz-177" value="«interface»&lt;br&gt;&lt;b&gt;IRepresentable&lt;/b&gt;" style="html=1;whiteSpace=wrap;movable=1;resizable=1;rotatable=1;deletable=1;editable=1;locked=0;connectable=1;fillColor=#647687;fontColor=#ffffff;strokeColor=#314354;" parent="SN2yluZUW8M9mS18KECz-176" vertex="1">
          <mxGeometry width="100" height="40" as="geometry" />
        </mxCell>
        <mxCell id="SN2yluZUW8M9mS18KECz-178" value="&lt;div&gt;&lt;span style=&quot;background-color: initial;&quot;&gt;String getRepr();&lt;/span&gt;&lt;br&gt;&lt;/div&gt;" style="rounded=0;whiteSpace=wrap;html=1;align=left;movable=1;resizable=1;rotatable=1;deletable=1;editable=1;locked=0;connectable=1;" parent="SN2yluZUW8M9mS18KECz-176" vertex="1">
          <mxGeometry y="40" width="100" height="50" as="geometry" />
        </mxCell>
        <mxCell id="SN2yluZUW8M9mS18KECz-180" style="edgeStyle=orthogonalEdgeStyle;rounded=0;orthogonalLoop=1;jettySize=auto;html=1;exitX=1;exitY=0.5;exitDx=0;exitDy=0;entryX=0;entryY=0.5;entryDx=0;entryDy=0;" parent="1" source="FavM__Tn094tiXzaovP9-75" target="SN2yluZUW8M9mS18KECz-178" edge="1">
          <mxGeometry relative="1" as="geometry" />
        </mxCell>
        <mxCell id="SN2yluZUW8M9mS18KECz-181" value="Extends" style="edgeLabel;html=1;align=center;verticalAlign=middle;resizable=0;points=[];" parent="SN2yluZUW8M9mS18KECz-180" vertex="1" connectable="0">
          <mxGeometry x="-0.2266" relative="1" as="geometry">
            <mxPoint as="offset" />
          </mxGeometry>
        </mxCell>
        <mxCell id="SN2yluZUW8M9mS18KECz-182" value="" style="group" parent="1" vertex="1" connectable="0">
          <mxGeometry x="1200" y="1180" width="100" height="90" as="geometry" />
        </mxCell>
        <mxCell id="SN2yluZUW8M9mS18KECz-183" value="«interface»&lt;br&gt;&lt;b&gt;IRepresentable&lt;/b&gt;" style="html=1;whiteSpace=wrap;movable=1;resizable=1;rotatable=1;deletable=1;editable=1;locked=0;connectable=1;fillColor=#647687;fontColor=#ffffff;strokeColor=#314354;" parent="SN2yluZUW8M9mS18KECz-182" vertex="1">
          <mxGeometry width="100" height="40" as="geometry" />
        </mxCell>
        <mxCell id="SN2yluZUW8M9mS18KECz-184" value="&lt;div&gt;&lt;span style=&quot;background-color: initial;&quot;&gt;String getRepr();&lt;/span&gt;&lt;br&gt;&lt;/div&gt;" style="rounded=0;whiteSpace=wrap;html=1;align=left;movable=1;resizable=1;rotatable=1;deletable=1;editable=1;locked=0;connectable=1;" parent="SN2yluZUW8M9mS18KECz-182" vertex="1">
          <mxGeometry y="40" width="100" height="50" as="geometry" />
        </mxCell>
        <mxCell id="SN2yluZUW8M9mS18KECz-186" style="edgeStyle=orthogonalEdgeStyle;rounded=0;orthogonalLoop=1;jettySize=auto;html=1;entryX=1;entryY=0.5;entryDx=0;entryDy=0;exitX=1;exitY=0.5;exitDx=0;exitDy=0;" parent="1" source="SN2yluZUW8M9mS18KECz-171" target="SN2yluZUW8M9mS18KECz-184" edge="1">
          <mxGeometry relative="1" as="geometry" />
        </mxCell>
        <mxCell id="t7THmQA8hoJjXBgSS74K-7" value="Extends" style="edgeLabel;html=1;align=center;verticalAlign=middle;resizable=0;points=[];" vertex="1" connectable="0" parent="SN2yluZUW8M9mS18KECz-186">
          <mxGeometry x="0.2399" y="-1" relative="1" as="geometry">
            <mxPoint as="offset" />
          </mxGeometry>
        </mxCell>
        <mxCell id="t7THmQA8hoJjXBgSS74K-1" value="AL = ArrayList" style="text;html=1;align=center;verticalAlign=middle;whiteSpace=wrap;rounded=0;" vertex="1" parent="1">
          <mxGeometry x="827" width="60" height="30" as="geometry" />
        </mxCell>
        <mxCell id="t7THmQA8hoJjXBgSS74K-2" value="AL = ArrayList" style="text;html=1;align=center;verticalAlign=middle;whiteSpace=wrap;rounded=0;" vertex="1" parent="1">
          <mxGeometry x="1660" width="60" height="30" as="geometry" />
        </mxCell>
        <mxCell id="t7THmQA8hoJjXBgSS74K-3" style="edgeStyle=orthogonalEdgeStyle;rounded=0;orthogonalLoop=1;jettySize=auto;html=1;entryX=0.5;entryY=1;entryDx=0;entryDy=0;" edge="1" parent="1" source="SN2yluZUW8M9mS18KECz-84" target="SN2yluZUW8M9mS18KECz-3">
          <mxGeometry relative="1" as="geometry" />
        </mxCell>
        <mxCell id="t7THmQA8hoJjXBgSS74K-4" value="Extends" style="edgeLabel;html=1;align=center;verticalAlign=middle;resizable=0;points=[];" vertex="1" connectable="0" parent="t7THmQA8hoJjXBgSS74K-3">
          <mxGeometry x="0.6853" y="1" relative="1" as="geometry">
            <mxPoint as="offset" />
          </mxGeometry>
        </mxCell>
        <mxCell id="t7THmQA8hoJjXBgSS74K-5" value="AL = ArrayList" style="text;html=1;align=center;verticalAlign=middle;whiteSpace=wrap;rounded=0;" vertex="1" parent="1">
          <mxGeometry y="1169" width="60" height="30" as="geometry" />
        </mxCell>
        <mxCell id="t7THmQA8hoJjXBgSS74K-6" value="AL = ArrayList" style="text;html=1;align=center;verticalAlign=middle;whiteSpace=wrap;rounded=0;" vertex="1" parent="1">
          <mxGeometry x="827" y="1169" width="60" height="30" as="geometry" />
        </mxCell>
        <mxCell id="SN2yluZUW8M9mS18KECz-32" value="" style="group" parent="1" vertex="1" connectable="0">
          <mxGeometry x="1020" y="790" width="480" height="375" as="geometry" />
        </mxCell>
        <mxCell id="SN2yluZUW8M9mS18KECz-28" value="" style="ellipse;shape=cloud;whiteSpace=wrap;html=1;" parent="SN2yluZUW8M9mS18KECz-32" vertex="1">
          <mxGeometry width="480" height="375.00000000000006" as="geometry" />
        </mxCell>
        <mxCell id="SN2yluZUW8M9mS18KECz-31" value="Point City" style="text;html=1;align=center;verticalAlign=middle;resizable=0;points=[];autosize=1;strokeColor=none;fillColor=none;" parent="SN2yluZUW8M9mS18KECz-32" vertex="1">
          <mxGeometry x="157.38319672131146" y="42.33870967741936" width="70" height="30" as="geometry" />
        </mxCell>
        <mxCell id="SN2yluZUW8M9mS18KECz-44" value="" style="group" parent="SN2yluZUW8M9mS18KECz-32" vertex="1" connectable="0">
          <mxGeometry x="250" y="120" width="147.7" height="78.24" as="geometry" />
        </mxCell>
        <mxCell id="SN2yluZUW8M9mS18KECz-42" value="&lt;b&gt;PointCityPlayer Implements IPlayer&lt;/b&gt;" style="html=1;whiteSpace=wrap;movable=1;resizable=1;rotatable=1;deletable=1;editable=1;locked=0;connectable=1;fillColor=#6a00ff;fontColor=#ffffff;strokeColor=#3700CC;" parent="SN2yluZUW8M9mS18KECz-44" vertex="1">
          <mxGeometry width="147.7" height="34.773333333333326" as="geometry" />
        </mxCell>
        <mxCell id="SN2yluZUW8M9mS18KECz-43" value="&lt;div&gt;AL&amp;lt;IToken&amp;gt; getTokens();&lt;/div&gt;" style="rounded=0;whiteSpace=wrap;html=1;align=left;movable=1;resizable=1;rotatable=1;deletable=1;editable=1;locked=0;connectable=1;" parent="SN2yluZUW8M9mS18KECz-44" vertex="1">
          <mxGeometry y="34.773333333333326" width="147.7" height="43.46666666666667" as="geometry" />
        </mxCell>
        <mxCell id="SN2yluZUW8M9mS18KECz-52" value="" style="group" parent="SN2yluZUW8M9mS18KECz-32" vertex="1" connectable="0">
          <mxGeometry x="80" y="110" width="140" height="70" as="geometry" />
        </mxCell>
        <mxCell id="SN2yluZUW8M9mS18KECz-49" value="«interface»&lt;br&gt;&lt;b&gt;IToken extends ICard&lt;/b&gt;" style="html=1;whiteSpace=wrap;movable=1;resizable=1;rotatable=1;deletable=1;editable=1;locked=0;connectable=1;fillColor=#647687;fontColor=#ffffff;strokeColor=#314354;" parent="SN2yluZUW8M9mS18KECz-52" vertex="1">
          <mxGeometry width="140" height="40" as="geometry" />
        </mxCell>
        <mxCell id="SN2yluZUW8M9mS18KECz-50" value="" style="rounded=0;whiteSpace=wrap;html=1;align=left;movable=1;resizable=1;rotatable=1;deletable=1;editable=1;locked=0;connectable=1;" parent="SN2yluZUW8M9mS18KECz-52" vertex="1">
          <mxGeometry y="40" width="140" height="30" as="geometry" />
        </mxCell>
        <mxCell id="SN2yluZUW8M9mS18KECz-144" value="" style="group" parent="SN2yluZUW8M9mS18KECz-32" vertex="1" connectable="0">
          <mxGeometry x="180" y="209" width="159" height="110" as="geometry" />
        </mxCell>
        <mxCell id="SN2yluZUW8M9mS18KECz-141" value="" style="edgeStyle=orthogonalEdgeStyle;rounded=0;orthogonalLoop=1;jettySize=auto;html=1;" parent="SN2yluZUW8M9mS18KECz-144" source="SN2yluZUW8M9mS18KECz-142" target="SN2yluZUW8M9mS18KECz-143" edge="1">
          <mxGeometry relative="1" as="geometry" />
        </mxCell>
        <mxCell id="SN2yluZUW8M9mS18KECz-142" value="«enumeration»&lt;br&gt;&lt;b&gt;PointCityResourceType Implements IResource&lt;/b&gt;" style="html=1;whiteSpace=wrap;movable=1;resizable=1;rotatable=1;deletable=1;editable=1;locked=0;connectable=1;fillColor=#008a00;strokeColor=#005700;fontColor=#ffffff;" parent="SN2yluZUW8M9mS18KECz-144" vertex="1">
          <mxGeometry width="159" height="43.99999999999999" as="geometry" />
        </mxCell>
        <mxCell id="SN2yluZUW8M9mS18KECz-143" value="&lt;div&gt;Industry,&lt;/div&gt;&lt;div&gt;Energy,&lt;/div&gt;&lt;div&gt;...&lt;/div&gt;" style="rounded=0;whiteSpace=wrap;html=1;align=left;movable=1;resizable=1;rotatable=1;deletable=1;editable=1;locked=0;connectable=1;" parent="SN2yluZUW8M9mS18KECz-144" vertex="1">
          <mxGeometry y="44" width="159" height="66" as="geometry" />
        </mxCell>
        <mxCell id="t7THmQA8hoJjXBgSS74K-38" style="edgeStyle=orthogonalEdgeStyle;rounded=0;orthogonalLoop=1;jettySize=auto;html=1;exitX=0.5;exitY=0;exitDx=0;exitDy=0;entryX=0.25;entryY=1;entryDx=0;entryDy=0;dashed=1;" edge="1" parent="1" source="SN2yluZUW8M9mS18KECz-170" target="SN2yluZUW8M9mS18KECz-18">
          <mxGeometry relative="1" as="geometry">
            <mxPoint x="1481.75" y="1301.9963636363636" as="sourcePoint" />
            <mxPoint x="90" y="780" as="targetPoint" />
            <Array as="points">
              <mxPoint x="1494" y="1220" />
              <mxPoint x="103" y="1220" />
            </Array>
          </mxGeometry>
        </mxCell>
        <mxCell id="t7THmQA8hoJjXBgSS74K-50" value="" style="group" vertex="1" connectable="0" parent="1">
          <mxGeometry x="1910" y="1380" width="210" height="140" as="geometry" />
        </mxCell>
        <mxCell id="SN2yluZUW8M9mS18KECz-160" value="«interface»&lt;br&gt;&lt;b&gt;IGameState&lt;/b&gt;" style="html=1;whiteSpace=wrap;movable=1;resizable=1;rotatable=1;deletable=1;editable=1;locked=0;connectable=1;fillColor=#647687;fontColor=#ffffff;strokeColor=#314354;" parent="t7THmQA8hoJjXBgSS74K-50" vertex="1">
          <mxGeometry width="210" height="46.66666666666667" as="geometry" />
        </mxCell>
        <mxCell id="SN2yluZUW8M9mS18KECz-161" value="IPlayer (get, set)CurrPlayer();&lt;div&gt;IMarket (get, set)Market();&lt;/div&gt;&lt;div&gt;AL&amp;lt;IPile&amp;gt; (get, set)Piles;&lt;/div&gt;&lt;div&gt;AL&amp;lt;IPlayer&amp;gt; (get, set)Players;&lt;/div&gt;" style="rounded=0;whiteSpace=wrap;html=1;align=left;movable=1;resizable=1;rotatable=1;deletable=1;editable=1;locked=0;connectable=1;" parent="t7THmQA8hoJjXBgSS74K-50" vertex="1">
          <mxGeometry y="46.66666666666674" width="210" height="93.33333333333334" as="geometry" />
        </mxCell>
        <mxCell id="t7THmQA8hoJjXBgSS74K-62" value="" style="group" vertex="1" connectable="0" parent="1">
          <mxGeometry x="2018" y="50" width="100" height="90" as="geometry" />
        </mxCell>
        <mxCell id="t7THmQA8hoJjXBgSS74K-63" value="«interface»&lt;br&gt;&lt;b&gt;IRepresentable&lt;/b&gt;" style="html=1;whiteSpace=wrap;movable=1;resizable=1;rotatable=1;deletable=1;editable=1;locked=0;connectable=1;fillColor=#647687;fontColor=#ffffff;strokeColor=#314354;" vertex="1" parent="t7THmQA8hoJjXBgSS74K-62">
          <mxGeometry width="100" height="40" as="geometry" />
        </mxCell>
        <mxCell id="t7THmQA8hoJjXBgSS74K-64" value="&lt;div&gt;&lt;span style=&quot;background-color: initial;&quot;&gt;String getRepr();&lt;/span&gt;&lt;br&gt;&lt;/div&gt;" style="rounded=0;whiteSpace=wrap;html=1;align=left;movable=1;resizable=1;rotatable=1;deletable=1;editable=1;locked=0;connectable=1;" vertex="1" parent="t7THmQA8hoJjXBgSS74K-62">
          <mxGeometry y="40" width="100" height="50" as="geometry" />
        </mxCell>
      </root>
    </mxGraphModel>
  </diagram>
</mxfile>
